<svg id="Layer_1" data-name="Layer 1" xmlns="http://www.w3.org/2000/svg" width="300" height="162" viewBox="0 0 300 162"><defs><style>.cls-1{fill:#323232;}</style></defs><title>Untitled-1</title><path class="cls-1" d="M107.1,38.9s-.56-.14-1.66-.46a11.16,11.16,0,0,0-2.65-.42,5,5,0,0,0-5.37,5.4,5,5,0,0,0,1.59,4,5.82,5.82,0,0,0,4.17,1.45,7,7,0,0,0,2.72-.64,8.65,8.65,0,0,0,1.41-.64c.32,0,.71,1.17,1.2,3.5a27.71,27.71,0,0,1,.64,4.2q0,1.06-3.39,1.8a21.06,21.06,0,0,1-4.24.6,13.15,13.15,0,0,1-10-4.06,14.07,14.07,0,0,1-3.92-10.13,14,14,0,0,1,4-10.13,13.28,13.28,0,0,1,10-4.1,14.51,14.51,0,0,1,7.2,1.77c.46.25.71.49.71.74a21.93,21.93,0,0,1-.81,3.21c-.53,1.87-.85,3-1,3.35S107.27,38.9,107.1,38.9Z"/><path class="cls-1" d="M130.54,39.86q0,1.06-1.17,1.06c-.35,0-.88,0-1.55-.07s-1.17-.07-1.48-.07a5.07,5.07,0,0,0-3.11.71,3.88,3.88,0,0,0-.81,2.9c0,.78,0,2,0,3.57s0,2.79,0,3.57c0,.53,0,1.34.11,2.37s.11,1.84.11,2.33-.32.67-.92.74c-.88.07-2.22.11-4.06.11a33.39,33.39,0,0,1-4.17-.18c-.6-.07-.92-.35-.92-.88,0-1.48,0-3.67,0-6.57s0-5.12,0-6.57a38.81,38.81,0,0,0-1.2-10.63,1.73,1.73,0,0,1,0-.39.56.56,0,0,1,.42-.56c1-.11,2.47-.32,4.41-.6,2.9-.56,4.38-.85,4.48-.85.32,0,.53.56.64,1.73s.25,1.73.49,1.73c-.25,0,.49-.49,2.26-1.45a10.74,10.74,0,0,1,5.08-1.45c1,0,1.52.21,1.52.67a15.58,15.58,0,0,1-.18,2.26c-.11,1.06-.18,1.8-.18,2.26s0,1.24,0,2.12C130.54,38.83,130.54,39.54,130.54,39.86Z"/><path class="cls-1" d="M158.92,42.08c0,1.87-.6,2.9-1.8,3.18-.21,0-2.08.25-5.68.6-2.15.25-5.4.53-9.67.85a3.86,3.86,0,0,0,2.33,2.72,8,8,0,0,0,3.64.78,10.23,10.23,0,0,0,4.91-1.31c.71-.42,1.38-.88,2.08-1.31.39.18,1,1.13,1.94,2.79A9.85,9.85,0,0,1,158,53.59q0,.21-.42.64c-2.22,2.4-5.72,3.6-10.42,3.6-4.38,0-7.87-1.27-10.56-3.81a13.51,13.51,0,0,1-4.13-10.34,14.69,14.69,0,0,1,3.71-10.34,12.73,12.73,0,0,1,10.06-4.17,11.92,11.92,0,0,1,9,3.85A12.36,12.36,0,0,1,158.92,42.08Zm-9.6-1.69a4.22,4.22,0,0,0-1.2-3,3.89,3.89,0,0,0-2.9-1.31,3.48,3.48,0,0,0-2.86,1.45,4.9,4.9,0,0,0-1.06,3.14c0,.49.25.74.78.74a47.7,47.7,0,0,0,6.32-.64C149,40.74,149.32,40.6,149.32,40.39Z"/><path class="cls-1" d="M189.57,43.25c0,1.41.07,3.5.25,6.28s.25,4.87.25,6.25q0,1.11-1,1.17c-2.26.18-4.87.25-7.8.25-.35,0-.6-.53-.71-1.55s-.25-1.59-.42-1.62a4,4,0,0,0-.56.46,9.13,9.13,0,0,1-6.6,3.11,11,11,0,0,1-8.86-4.24,14.2,14.2,0,0,1-3.32-9.46c0-4.24,1.13-7.63,3.42-10.24a12.54,12.54,0,0,1,9.78-4,8.3,8.3,0,0,1,6.81,3c.07.07.14.14.18.14s.35-.42.56-1.34.46-1.34.78-1.34a23.43,23.43,0,0,1,3.88.56c1.8.35,3.11.67,3.92.92.28.11.42.25.42.46s0,.25-.07.56A54.23,54.23,0,0,0,189.57,43.25Zm-8.86.18a5.36,5.36,0,0,0-1.45-3.85,5.08,5.08,0,0,0-3.85-1.52,5,5,0,0,0-3.81,1.52,5.64,5.64,0,0,0,.07,7.7,5,5,0,0,0,3.74,1.59,5.05,5.05,0,0,0,3.81-1.52A5.47,5.47,0,0,0,180.71,43.42Z"/><path class="cls-1" d="M213.22,39.86c0,.71-.39,1.06-1.2,1.06-.35,0-.85,0-1.52-.07s-1.17-.07-1.52-.07a5.07,5.07,0,0,0-3.11.71,3.88,3.88,0,0,0-.81,2.9c0,.78,0,2,0,3.57s0,2.79,0,3.57c0,.53,0,1.34.11,2.37s.11,1.84.11,2.33-.32.67-.92.74c-.88.07-2.22.11-4.06.11a33.39,33.39,0,0,1-4.17-.18c-.6-.07-.88-.35-.88-.88,0-1.48,0-3.67,0-6.57s0-5.12,0-6.6a40.41,40.41,0,0,0-1.17-10.63,2.31,2.31,0,0,1-.07-.39.56.56,0,0,1,.42-.56c1-.11,2.47-.32,4.41-.6,2.9-.56,4.38-.85,4.48-.85.32,0,.53.56.64,1.73s.25,1.73.49,1.73c-.25,0,.49-.49,2.26-1.45A10.74,10.74,0,0,1,212,30.36c1,0,1.52.21,1.52.67a15.58,15.58,0,0,1-.18,2.26c-.11,1-.18,1.8-.21,2.26s0,1.24,0,2.12C213.22,38.83,213.22,39.54,213.22,39.86Z"/><path class="cls-1" d="M120.87,79.08a15.88,15.88,0,0,1-3.92,11,13.42,13.42,0,0,1-10.59,4.52,12.52,12.52,0,0,1-5.12-1.2c-1.84-.78-2.65-1.2-2.47-1.2-.28,0-.39.32-.39.92,0,1.06,0,2.65.14,4.77s.18,3.71.18,4.77c0,.67-.35,1-1,1l-6.32,0a11.22,11.22,0,0,1-2.75-.18,1,1,0,0,1-.92-1.13l.07-23.9A56.74,56.74,0,0,0,86.65,66.3a3.67,3.67,0,0,1-.07-.53c0-.32.11-.53.35-.6a22.85,22.85,0,0,1,4.62-1,34.75,34.75,0,0,1,4.8-.53q1.22,0,1.38,1.59t.42,1.59q-.32,0,2.65-1.69a11.08,11.08,0,0,1,5.37-1.69,13.83,13.83,0,0,1,10.77,4.45A16.15,16.15,0,0,1,120.87,79.08ZM109.36,79a6.58,6.58,0,0,0-1.52-4.34,5.2,5.2,0,0,0-4.06-2,4.82,4.82,0,0,0-4,2A7,7,0,0,0,98.48,79a6.83,6.83,0,0,0,1.38,4.38,4.83,4.83,0,0,0,4,1.91C107.56,85.29,109.36,83.21,109.36,79Z"/><path class="cls-1" d="M153.31,77.17c0,2.08-.67,3.28-2,3.57-.21,0-2.37.28-6.43.67q-3.65.42-10.91,1a4.38,4.38,0,0,0,2.65,3.07,9.55,9.55,0,0,0,4.1.85,11.66,11.66,0,0,0,5.54-1.48c.78-.49,1.55-1,2.37-1.48.42.21,1.17,1.27,2.19,3.18a11.33,11.33,0,0,1,1.52,3.64c0,.14-.14.39-.46.74-2.54,2.72-6.46,4.06-11.76,4.06-4.94,0-8.9-1.45-11.9-4.31s-4.66-6.81-4.66-11.69a16.73,16.73,0,0,1,4.17-11.69,14.63,14.63,0,0,1,11.37-4.73,13.51,13.51,0,0,1,10.13,4.34A14.49,14.49,0,0,1,153.31,77.17Zm-10.84-1.91a4.9,4.9,0,0,0-1.34-3.39,4.27,4.27,0,0,0-3.25-1.45,3.87,3.87,0,0,0-3.21,1.62,5.69,5.69,0,0,0-1.17,3.57c0,.56.28.85.88.85a57.2,57.2,0,0,0,7.13-.71C142.12,75.66,142.47,75.48,142.47,75.27Z"/><path class="cls-1" d="M177.32,74.67c0,.81-.46,1.2-1.34,1.2-.39,0-1,0-1.73-.07s-1.31-.07-1.69-.07c-1.73,0-2.9.25-3.53.81s-.92,1.62-.92,3.25c0,.88,0,2.22,0,4.06s0,3.14,0,4c0,.6,0,1.52.14,2.68s.14,2.08.14,2.65-.35.78-1,.85c-1,.11-2.51.11-4.55.11s-3.53-.07-4.7-.18c-.67-.07-1-.42-1-1,0-1.66,0-4.13,0-7.45s0-5.79,0-7.45a45.22,45.22,0,0,0-1.34-12,2.94,2.94,0,0,1-.07-.46.61.61,0,0,1,.46-.64c1.13-.14,2.82-.35,5-.71,3.25-.64,4.94-1,5-1,.39,0,.6.67.71,2s.28,1.94.56,1.94c-.28,0,.56-.53,2.54-1.62A12.3,12.3,0,0,1,175.91,64c1.17,0,1.73.25,1.73.74s-.07,1.45-.18,2.54-.21,2-.21,2.54,0,1.41,0,2.4C177.28,73.47,177.32,74.28,177.32,74.67Z"/><path class="cls-1" d="M212.87,65.81c0,1.52-.07,3.85-.21,6.88s-.21,5.37-.21,6.88,0,3.71.14,6.71.14,5.19.14,6.67A1,1,0,0,1,212,94a23.91,23.91,0,0,1-5,.32,45.32,45.32,0,0,1-4.73-.18.9.9,0,0,1-.74-.74c-.07-.64-.11-1.24-.18-1.87-.11-1-.25-1.41-.46-1.41.28,0-.74.71-3.14,2.12a13,13,0,0,1-6.5,2.12q-8.21,0-9.74-7.41a55,55,0,0,1-.67-10A42.69,42.69,0,0,1,182,65.77q.37-1.27,1.27-1.27c1,0,2.4,0,4.34,0s3.39,0,4.34,0c.64,0,1,.28,1,.81,0,.14,0,.35-.07.64a57.3,57.3,0,0,0-.67,8.54,48.36,48.36,0,0,0,.35,7.38,3.72,3.72,0,0,0,4.06,3.42,5.19,5.19,0,0,0,3-1.2,3.56,3.56,0,0,0,1.66-2.51c0-.78.07-6,.07-15.57a2.56,2.56,0,0,1,.14-1.2c.14-.21.49-.32,1.13-.32,1,0,2.54,0,4.59,0s3.57,0,4.59,0c.64,0,1,.14,1.09.46A3.09,3.09,0,0,1,212.87,65.81Z"/><path class="cls-1" d="M101.52,125.51a7.14,7.14,0,0,1-2.08,5.15,7.08,7.08,0,0,1-10.17,0,7.42,7.42,0,0,1,0-10.31,7.08,7.08,0,0,1,10.17,0A7.06,7.06,0,0,1,101.52,125.51Z"/><path class="cls-1" d="M126,112.06l-1.84-.49a12.24,12.24,0,0,0-3-.49,5.59,5.59,0,0,0-6,6,5.59,5.59,0,0,0,1.8,4.41,6.55,6.55,0,0,0,4.62,1.62,8,8,0,0,0,3-.67,10.28,10.28,0,0,0,1.59-.71c.35,0,.78,1.31,1.34,3.88a32.51,32.51,0,0,1,.71,4.73c0,.78-1.27,1.45-3.78,2a23.63,23.63,0,0,1-4.77.64,14.9,14.9,0,0,1-11.12-4.52,16.72,16.72,0,0,1,0-22.6,14.77,14.77,0,0,1,11.09-4.55,15.94,15.94,0,0,1,8,1.94c.53.28.81.56.81.85a34.87,34.87,0,0,1-.92,3.6c-.56,2.08-1,3.32-1.13,3.74S126.2,112.06,126,112.06Z"/><path class="cls-1" d="M161.29,117.14A15.42,15.42,0,0,1,157,128.47a16.6,16.6,0,0,1-22.31.07,14.81,14.81,0,0,1-4.34-11c0-4.73,1.38-8.58,4.17-11.51s6.53-4.41,11.26-4.41A15,15,0,0,1,157,105.95C159.88,108.77,161.29,112.55,161.29,117.14Zm-10,0a6.46,6.46,0,0,0-1.52-4.27,4.74,4.74,0,0,0-3.88-1.84,5,5,0,0,0-4,1.91,6.79,6.79,0,0,0,0,8.47,5.09,5.09,0,0,0,7.94,0A6.65,6.65,0,0,0,151.26,117.14Z"/><path class="cls-1" d="M213.93,131.08c0,.71-.32,1.13-.92,1.2s-2.12.11-4.52.11a31.18,31.18,0,0,1-4.66-.18c-.6-.11-.92-.64-.92-1.52s0-2.33.07-4.2.11-3.28.11-4.2q0-5.35-.11-7.63c-.11-2.44-1.27-3.64-3.46-3.64a4.4,4.4,0,0,0-2.86,1.2,3.9,3.9,0,0,0-1.55,2.68c-.11.85-.11,3.35-.11,7.52,0,1,0,2.4.11,4.38s.11,3.42.11,4.41c0,.67-.32,1-.88,1H185q-.85,0-.85-1.27c0-1,0-2.4.11-4.31s.11-3.35.11-4.34c0-.78,0-1.91-.07-3.42s-.07-2.68-.07-3.46c0-2.93-1.09-4.38-3.32-4.38a5.34,5.34,0,0,0-2.9,1c-1.13.78-1.73,1.55-1.73,2.4,0,1.87,0,4.62,0,8.33s0,6.46,0,8.3a1.61,1.61,0,0,1-.18,1,1.84,1.84,0,0,1-1,.25q-1.38.11-4.34.11c-1.27,0-2.75,0-4.38-.18a1.61,1.61,0,0,1-.88-.21c-.11-.11-.14-.39-.14-.92,0-1.62,0-4.06,0-7.34s0-5.72,0-7.34a97.37,97.37,0,0,0-.74-11.3,4.84,4.84,0,0,1-.07-.56.71.71,0,0,1,.42-.71,10.25,10.25,0,0,1,2.54-.46c1.52-.14,2.44-.25,2.72-.28s1-.25,2.4-.64a9.27,9.27,0,0,1,2.44-.42c.39,0,.6.71.6,2.12s.11,2.12.25,2.12a3.11,3.11,0,0,0,.71-.42,30,30,0,0,1,4.34-2.93,11.82,11.82,0,0,1,5.12-1.13,10.14,10.14,0,0,1,5,1.24,6.56,6.56,0,0,1,3.21,4,13.09,13.09,0,0,1,4.48-3.71,12,12,0,0,1,5.54-1.48,10.64,10.64,0,0,1,6.57,1.87,7.06,7.06,0,0,1,2.86,6q0,1.64-.11,4.87t-.11,4.87c0,1.27,0,3.25.11,5.79S213.93,129.78,213.93,131.08Z"/></svg>