<svg id="Layer_1" data-name="Layer 1" xmlns="http://www.w3.org/2000/svg" width="300" height="162" viewBox="0 0 300 162"><defs><style>.cls-1{fill:#323232;}</style></defs><title>Untitled-1</title><path class="cls-1" d="M85.39,91.74H76.48V91s.63-.49,1.39-1.11a5.57,5.57,0,0,0,1.6-2c2.71-7.1,2.78-7.31,11.06-29.5-.9-.49-1.67-.83-2.57-1.32a8.16,8.16,0,0,1,.35-.77h6.61c4.73,10.79,12.46,28.11,15.73,35.35.83,1,2.71,4.94,7.45,4.73a4.64,4.64,0,0,1-.42.77c-4.66,1-7.79.28-10.09-2.23-.9-.77-3.27-6.4-6.89-15H86.22c-.28.83-2.85,7.31-2.85,7.86-.28,1,1.53,2.92,2,3.13m13.5-14.68c-1.74-3.9-6.19-14-6.19-14-.77,2.09-4.24,11.34-5.22,14Zm19.69-14v5.91h7.17v3.69h-7.17v11.9c0,2.57,1.11,3.9,3.27,3.9A10.49,10.49,0,0,0,127,86.1v4.17a11.35,11.35,0,0,1-5.64,1.46,7.62,7.62,0,0,1-5.15-1.81,4.56,4.56,0,0,1-1-1.25,7.57,7.57,0,0,1-.7-1.81,19.09,19.09,0,0,1-.28-4.17V71.84h-2.92Zm11.48,0h4.52V78.66A9.53,9.53,0,0,1,142,75.25a7.58,7.58,0,0,1,4.11,1.11,7.43,7.43,0,0,1,2.71,3.13,16.09,16.09,0,0,1,.9,6v6.26h-4.52V84.29a6.22,6.22,0,0,0-1.25-4,3.86,3.86,0,0,0-3.2-1.53,7.23,7.23,0,0,0-3.2.77,13.05,13.05,0,0,0-2.92,2.57v9.6h-4.59ZM172.23,80H156.64a8.56,8.56,0,0,0,2.16,5.57A7.32,7.32,0,0,0,164,87.56a13.3,13.3,0,0,0,8.21-2.78v4.38a14.6,14.6,0,0,1-4.11,1.95,16.4,16.4,0,0,1-4.8.63,9.18,9.18,0,0,1-5.64-1.53A11.29,11.29,0,0,1,154,86a14.75,14.75,0,0,1-1.39-6.47,11.17,11.17,0,0,1,2.92-8.07,8.89,8.89,0,0,1,7.17-3.27,8.3,8.3,0,0,1,6.82,3.13,11.44,11.44,0,0,1,2.71,8.07V80Zm-15.52-2.71h11.48a5.25,5.25,0,0,0-1.6-3.76,5.14,5.14,0,0,0-3.83-1.46,5.58,5.58,0,0,0-4,1.46A6.24,6.24,0,0,0,156.71,77.33Zm18.51-15h4.52V91.74h-4.52Zm23.52,15.38v9.67c0,.77.28,1.18.77,1.18a5.91,5.91,0,0,0,2.57-1.18v2.71a14.94,14.94,0,0,1-2.44,1.32,6,6,0,0,1-1.95.35c-1.95,0-3.06-.77-3.41-2.3a9.91,9.91,0,0,1-6.12,2.23,5.56,5.56,0,0,1-4-9.39,11.25,11.25,0,0,1,4.38-2.71l5.78-1.95V76.43c0-2.71-1.39-4.11-4.11-4.11-2.44,0-5.29,1.81-7.58,4.31V71.77a10.49,10.49,0,0,1,8-3.62,8.55,8.55,0,0,1,5.91,1.95,5.41,5.41,0,0,1,1.32,1.67,6.61,6.61,0,0,1,.77,2,26.56,26.56,0,0,1,.14,3.9Zm-4.38,9.18V80.12l-3,1.18a12.09,12.09,0,0,0-3.27,1.81,3.16,3.16,0,0,0-1,2.3,2.89,2.89,0,0,0,.9,2.3,3.15,3.15,0,0,0,2.37.9A5.68,5.68,0,0,0,194.35,86.87Zm10.72,2.85V84.85A19.61,19.61,0,0,0,209,87a9,9,0,0,0,3.34.83,4,4,0,0,0,2.44-.7,2.06,2.06,0,0,0,1-1.67,2.49,2.49,0,0,0-.63-1.67,16.3,16.3,0,0,0-2.85-1.88c-2.92-1.6-4.8-3-5.71-4.17A5.77,5.77,0,0,1,205.28,74a5.21,5.21,0,0,1,2-4.24,8.15,8.15,0,0,1,5.29-1.67c2.23,0,5.64,1.25,7.93,2.5V75c-2.64-1.6-6-3.06-7.65-3.06a3.55,3.55,0,0,0-2.09.56,1.64,1.64,0,0,0-.83,1.46,2.08,2.08,0,0,0,.7,1.53,12.23,12.23,0,0,0,2.57,1.74l1.6.9c3.83,2.16,5.71,4.52,5.71,7.1a5.61,5.61,0,0,1-2.16,4.59,8.69,8.69,0,0,1-5.64,1.81,14.36,14.36,0,0,1-3.62-.42A17.7,17.7,0,0,1,205.07,89.72ZM73.56,58.27a5.8,5.8,0,0,0-2.37.7,6.29,6.29,0,0,0-1.88,1.39,5.84,5.84,0,0,0-1.25,1.95,6.79,6.79,0,0,0-.49,2.3c0,2.57.77,5.22.77,7.79a6.23,6.23,0,0,1-.42,2.16,10.59,10.59,0,0,1-1.18,2.09,11.44,11.44,0,0,1-1.81,1.88A12.89,12.89,0,0,1,62.64,80a10.68,10.68,0,0,1,4,3.27,9.36,9.36,0,0,1,1.18,2.16,6.68,6.68,0,0,1,.42,2.3c0,4.66-2.57,10.23,2.85,13.08a6.67,6.67,0,0,0,2.37.7v2a13.82,13.82,0,0,1-4.59-.77,12.36,12.36,0,0,1-3.76-2.16c-5-4.24-2.71-9-2.71-14.26A4.67,4.67,0,0,0,62,84.36a5.32,5.32,0,0,0-1.18-1.6,5,5,0,0,0-1.74-1.11A5.08,5.08,0,0,0,57,81.23V78.87a5.08,5.08,0,0,0,2.09-.42,7.22,7.22,0,0,0,1.74-1A5,5,0,0,0,62,75.87a4.67,4.67,0,0,0,.42-1.95c0-2.64-.77-5.15-.77-7.86a8.36,8.36,0,0,1,.9-3.83,10,10,0,0,1,2.57-3.13A11,11,0,0,1,68.9,57a14.45,14.45,0,0,1,4.59-.77v2Zm149.95-2a13.82,13.82,0,0,1,4.59.77,13.1,13.1,0,0,1,3.76,2.09,11.06,11.06,0,0,1,2.57,3.13,8,8,0,0,1,.9,3.83c0,2.64-.77,5.22-.77,7.86a4.67,4.67,0,0,0,.42,1.95,4.31,4.31,0,0,0,1.18,1.53,6.08,6.08,0,0,0,1.74,1,5.08,5.08,0,0,0,2.09.42v2.37a5.08,5.08,0,0,0-2.09.42,7.22,7.22,0,0,0-1.74,1,5.32,5.32,0,0,0-1.18,1.6,4.67,4.67,0,0,0-.42,1.95c0,5.22,2.3,10-2.71,14.26a12.36,12.36,0,0,1-3.76,2.16,12.74,12.74,0,0,1-4.59.77v-2a5.8,5.8,0,0,0,2.37-.7c5.43-2.85,2.85-8.42,2.85-13.08a6.68,6.68,0,0,1,.42-2.3,8.12,8.12,0,0,1,1.18-2.16,9.23,9.23,0,0,1,1.81-1.88,10.78,10.78,0,0,1,2.23-1.39,12.89,12.89,0,0,1-2.3-1.46,9.23,9.23,0,0,1-1.81-1.88,8.93,8.93,0,0,1-1.18-2.09,5.94,5.94,0,0,1-.42-2.16c0-2.57.77-5.15.77-7.79a5,5,0,0,0-.49-2.3,5.22,5.22,0,0,0-1.25-1.95,7.32,7.32,0,0,0-1.88-1.39,6.67,6.67,0,0,0-2.37-.7V56.25Z"/><path class="cls-1" d="M151.21,45.33a1.2,1.2,0,1,0,.77.35A.89.89,0,0,0,151.21,45.33Z"/><path class="cls-1" d="M168.19,36.63a9,9,0,0,1,.28-1.18c-.56-.35-3.55,2.16-3.55,2.16-.07.7-.07,5.43-.14,6.12a4.79,4.79,0,0,1-.49,2,4.5,4.5,0,0,1-3.13,2.09,14,14,0,0,1-3.83-.42,9.08,9.08,0,0,0-.14-1.67c-.42-3.13-1.53-8.14-3.55-10.65a12,12,0,0,0-1.88-1.88c-.07-.07-.49-.49-.7-.49s-.63.42-.7.49a12,12,0,0,0-1.88,1.88c-2,2.5-3.13,7.51-3.55,10.65-.07.7-.14,1.46-.14,1.67-1.25.14-2.57.63-3.83.42a4.65,4.65,0,0,1-3.13-2.09,4.12,4.12,0,0,1-.49-2c-.07-.7-.14-5.43-.14-6.12,0,0-3-2.5-3.55-2.16.21.7.35,1.18.28,1.18a36.29,36.29,0,0,1-1,13.78c.07.35.9,3.06.9,3.06s8.77-1.46,11.62-.83a3.74,3.74,0,0,1,3.2,3.69h4.73a3.8,3.8,0,0,1,3.2-3.69c2.85-.63,11.62.83,11.62.83s.83-2.71.9-3.06a41.1,41.1,0,0,1-.9-13.78ZM153,46.72,154.62,48l-.21.42-2-.63a1.1,1.1,0,0,0-.28-.07.25.25,0,0,0-.28.28l-.35,5.43H151L150.59,48c0-.14-.14-.21-.28-.21s-.21,0-.28.07l-2.09.7-.21-.42,1.67-1.32c.14-.14.21-.21.21-.28s0-.21-.07-.28l-1.81-1.39.21-.42,2.09.7h.14a.42.42,0,0,0,.42-.21l.42-5.29h.42l.42,5.29c0,.14.14.21.28.21h.07c.07,0,.07,0,.21-.07l2-.7.21.42-1.81,1.39c-.07.07-.07.14-.07.28a.52.52,0,0,0,.21.21Z"/><path class="cls-1" d="M84,122.91c0-3.34.07-7,.07-10.72-4.73,1.25-5.29,1.46-10.58,2.92,2.57,2.16,3.48,3.06,6.12,5.36.83.7.9,1.46.14,2.78-2.09,2.71-3.2,5.64-6.19,9.74,6.12-1.88,12.59-3.27,18.51-5.91C89.77,126.18,85.53,123.75,84,122.91Z"/><path class="cls-1" d="M85.32,122.08c1.95.9,3.9,1.67,7.1,3.13,0-1.6.07-2,.07-3.13C92.49,122,85.32,122.08,85.32,122.08Zm127.75.83c0-3.34-.07-7-.07-10.72,4.73,1.25,5.29,1.46,10.58,2.92-2.57,2.16-3.48,3.06-6.12,5.36-.83.7-.9,1.46-.14,2.78,2.09,2.71,3.13,5.64,6.19,9.74-6.12-1.88-12.52-3.27-18.51-5.91,2.23-.9,6.54-3.34,8.07-4.17Z"/><path class="cls-1" d="M211.68,122.08c-1.95.9-3.9,1.67-7.1,3.13,0-1.6-.07-2-.07-3.13C204.51,122,211.68,122.08,211.68,122.08Z"/><path class="cls-1" d="M176.05,110.8a.94.94,0,0,0-.42-.49.85.85,0,0,0-.63-.21,1.2,1.2,0,0,0-1,.56,4,4,0,0,0-.28,2.37c.07.28.14.49.21.7a.94.94,0,0,0,.42.49,1,1,0,0,0,1.25,0,3,3,0,0,0,.42-.49c.07-.21.14-.42.21-.7a4.25,4.25,0,0,0,0-1.53C176.19,111.22,176.12,111,176.05,110.8Z"/><path class="cls-1" d="M151.77,110.8a.94.94,0,0,0-.42-.49.85.85,0,0,0-.63-.21,1.2,1.2,0,0,0-1,.56,3.63,3.63,0,0,0-.35,1.6h0a2.85,2.85,0,0,0,.07.77c.07.28.14.49.21.7a.94.94,0,0,0,.42.49,1,1,0,0,0,1.25,0,3,3,0,0,0,.42-.49c.07-.21.14-.42.21-.7a4.24,4.24,0,0,0,0-1.53C151.91,111.22,151.84,111,151.77,110.8Z"/><polygon class="cls-1" points="135.42 112.96 136.81 112.96 136.11 110.59 135.42 112.96"/><path class="cls-1" d="M179.74,110.25h-1v4h1a1.2,1.2,0,0,0,1-.56,2.17,2.17,0,0,0,.35-1.46,3.11,3.11,0,0,0-.35-1.53A1.05,1.05,0,0,0,179.74,110.25Z"/><path class="cls-1" d="M122.69,110.8a.94.94,0,0,0-.42-.49.85.85,0,0,0-.63-.21,1.2,1.2,0,0,0-1,.56,4,4,0,0,0-.28,2.37c.07.28.14.49.21.7a.94.94,0,0,0,.42.49,1,1,0,0,0,1.25,0,3,3,0,0,0,.42-.49c.07-.21.14-.42.21-.7a4.25,4.25,0,0,0,0-1.53C122.82,111.22,122.75,111,122.69,110.8Z"/><path class="cls-1" d="M195.4,110.8a.94.94,0,0,0-.42-.49.85.85,0,0,0-.63-.21,1.2,1.2,0,0,0-1,.56,3.63,3.63,0,0,0-.35,1.6,2.85,2.85,0,0,0,.07.77c.07.28.14.49.21.7a.94.94,0,0,0,.42.49,1,1,0,0,0,1.25,0,3,3,0,0,0,.42-.49c.07-.21.14-.42.21-.7a4.24,4.24,0,0,0,0-1.53C195.54,111.22,195.47,111,195.4,110.8Z"/><path class="cls-1" d="M209.59,103.5H87.34a2,2,0,0,0-2,2v12.94a2,2,0,0,0,2,2H209.59a2,2,0,0,0,2-2V105.52A2,2,0,0,0,209.59,103.5Zm-34.16,3.83.56.83-1.88,1-.42-.63Zm-38.76.07.49.77-1.88,1-.35-.56Zm-45.51,8.84-.7-.35,3.34-6.68.7.35Zm8.14-2.5-.42.77-1.25-.83.14,1.46h-.83l.14-1.46-1.25.83-.42-.77,1.32-.63-1.32-.63.42-.77,1.25.83-.14-1.46h.83l-.14,1.46,1.25-.83.42.77L98,113.1Zm4.66,1.39h-.9v-3.83l-.56,2h-.7l-.56-2v3.83h-.9v-5.64h1l.77,2.57.77-2.57h1ZM108.7,114a2.18,2.18,0,0,1-.35.7,1.08,1.08,0,0,1-.56.42,2.6,2.6,0,0,1-.83.14,3,3,0,0,1-.83-.14,1.67,1.67,0,0,1-.56-.42,2.18,2.18,0,0,1-.35-.7,3.53,3.53,0,0,1-.14-.9v-3.62h.9v4a1,1,0,0,0,.14.42,1.22,1.22,0,0,0,.28.35.92.92,0,0,0,1,0,.69.69,0,0,0,.28-.35,1,1,0,0,0,.14-.42v-4h.9v3.62h.14A3.52,3.52,0,0,1,108.7,114Zm5,.14a3.86,3.86,0,0,1-.42.56,1.52,1.52,0,0,1-.56.35,2.5,2.5,0,0,1-.77.14,1.36,1.36,0,0,1-1-.28,2,2,0,0,1-.7-.63,2.05,2.05,0,0,1-.35-.9,5.41,5.41,0,0,1-.14-1.11,6.09,6.09,0,0,1,.14-1.11,2.73,2.73,0,0,1,.35-.9,1.8,1.8,0,0,1,.63-.63,2.27,2.27,0,0,1,1-.28.52.52,0,0,1,.35.07.53.53,0,0,1,.35.14,1,1,0,0,1,.28.21,1.52,1.52,0,0,1,.21.35v-.7h.83v2.16h-.83A1.53,1.53,0,0,0,113,111c-.07-.14-.14-.35-.21-.49s-.21-.21-.35-.35A1.29,1.29,0,0,0,112,110a.85.85,0,0,0-.63.21,3,3,0,0,0-.42.49c-.07.21-.14.42-.21.7a4.25,4.25,0,0,0,0,1.53c.07.28.14.49.21.7a.94.94,0,0,0,.42.49.85.85,0,0,0,.63.21,1.15,1.15,0,0,0,.83-.35,2.54,2.54,0,0,0,.49-1l.7.35A2.49,2.49,0,0,1,113.71,114.14Zm4.8,1h-.9v-2.5H115.8v2.5h-.9v-5.64h.9v2.37h1.81v-2.37h.9Zm5.08-1.74a2.73,2.73,0,0,1-.35.9,1.52,1.52,0,0,1-.7.63,2.27,2.27,0,0,1-1,.28,1.36,1.36,0,0,1-1-.28,2,2,0,0,1-.7-.63,3.49,3.49,0,0,1-.35-.9,2.88,2.88,0,0,1-.14-1.11,6.09,6.09,0,0,1,.14-1.11,2.73,2.73,0,0,1,.35-.9,1.52,1.52,0,0,1,.7-.63,2.27,2.27,0,0,1,1-.28,1.47,1.47,0,0,1,1,.28,2,2,0,0,1,.7.63,3.5,3.5,0,0,1,.35.9,5.41,5.41,0,0,1,.14,1.11A6.09,6.09,0,0,1,123.59,113.38Zm9.46,1.74h-.9v-3.83l-.56,2h-.7l-.56-2v3.83h-.9v-5.64h1l.77,2.57.77-2.57h1Zm4.38,0L137,113.8h-1.88l-.42,1.32h-1l1.74-5.64h1l1.74,5.64Zm5.29-.83a1.25,1.25,0,0,1-.35.49,1.51,1.51,0,0,1-.56.35,1.81,1.81,0,0,1-1.39,0,1.24,1.24,0,0,1-.56-.49v.49H139v-1.88h.83a1,1,0,0,0,.07.49.69.69,0,0,0,.28.35c.14.07.21.14.35.21a.88.88,0,0,0,.42.07.85.85,0,0,0,.63-.21.88.88,0,0,0,.28-.63.52.52,0,0,0-.07-.35c-.07-.07-.14-.21-.21-.28a1.52,1.52,0,0,0-.35-.21,3.39,3.39,0,0,0-.49-.21l-.63-.21a1.51,1.51,0,0,1-.56-.35,3,3,0,0,1-.42-.49,2.06,2.06,0,0,1-.14-.7,1.39,1.39,0,0,1,.14-.63,1.25,1.25,0,0,1,.35-.49,1.4,1.4,0,0,1,.56-.28,1.93,1.93,0,0,1,.63-.07,2.06,2.06,0,0,1,.7.14,1.18,1.18,0,0,1,.42.42v-.49h.83v1.74h-.77a.87.87,0,0,0-.28-.77.89.89,0,0,0-.7-.28.85.85,0,0,0-.63.21.7.7,0,0,0-.28.49c0,.14,0,.21.07.28l.21.21a1.52,1.52,0,0,0,.35.21l.42.21a2.47,2.47,0,0,1,.63.28,1.51,1.51,0,0,1,.56.35,3,3,0,0,1,.42.49,1.85,1.85,0,0,1,.21.83A2.06,2.06,0,0,1,142.72,114.28Zm10-1a3.45,3.45,0,0,1-.28.9,2.72,2.72,0,0,1-.56.7,1.53,1.53,0,0,1-.83.35.55.55,0,0,0,.35.56,1.64,1.64,0,0,0,.9.14h.35v.77h-.42a2.21,2.21,0,0,1-1.39-.42,1.8,1.8,0,0,1-.63-1.18,2.57,2.57,0,0,1-.77-.35,3.82,3.82,0,0,1-.49-.63,3.92,3.92,0,0,1-.28-.83,2.79,2.79,0,0,1-.21-1,6.09,6.09,0,0,1,.14-1.11,2.73,2.73,0,0,1,.35-.9,1.52,1.52,0,0,1,.7-.63,2.27,2.27,0,0,1,1-.28,1.47,1.47,0,0,1,1,.28,2,2,0,0,1,.7.63,3.5,3.5,0,0,1,.35.9,5.41,5.41,0,0,1,.14,1.11A5.26,5.26,0,0,1,152.74,113.31Zm4.45.7a2.18,2.18,0,0,1-.35.7,1.08,1.08,0,0,1-.56.42,2.6,2.6,0,0,1-.83.14,3,3,0,0,1-.83-.14,1.67,1.67,0,0,1-.56-.42,2.18,2.18,0,0,1-.35-.7,3.53,3.53,0,0,1-.14-.9v-3.62h.9v4a1,1,0,0,0,.14.42,1.22,1.22,0,0,0,.28.35.92.92,0,0,0,1,0,.69.69,0,0,0,.28-.35,1,1,0,0,0,.14-.42v-4h.9v3.62h.14A3.53,3.53,0,0,1,157.2,114Zm5-3.69h-2.71v1.6h2.09v.83h-2.09v1.67h2.71v.7h-3.62v-5.64h3.62Zm9.67,3.83a3.86,3.86,0,0,1-.42.56,1.52,1.52,0,0,1-.56.35,2.5,2.5,0,0,1-.77.14,1.36,1.36,0,0,1-1-.28,2,2,0,0,1-.7-.63,2.05,2.05,0,0,1-.35-.9,5.41,5.41,0,0,1-.14-1.11,6.09,6.09,0,0,1,.14-1.11,2.73,2.73,0,0,1,.35-.9,1.8,1.8,0,0,1,.63-.63,2.27,2.27,0,0,1,1-.28.52.52,0,0,1,.35.07.53.53,0,0,1,.35.14,1,1,0,0,1,.28.21,1.52,1.52,0,0,1,.21.35v-.7h.83v2.16h-.83a1.53,1.53,0,0,0-.07-.56c-.07-.14-.14-.35-.21-.49s-.21-.21-.35-.35a1.29,1.29,0,0,0-.49-.14.85.85,0,0,0-.63.21,3,3,0,0,0-.42.49c-.07.21-.14.42-.21.7a4.24,4.24,0,0,0,0,1.53c.07.28.14.49.21.7a.94.94,0,0,0,.42.49.85.85,0,0,0,.63.21A1.15,1.15,0,0,0,171,114a2.54,2.54,0,0,0,.49-1l.7.35A2.49,2.49,0,0,1,171.88,114.14Zm5.08-.77a2.73,2.73,0,0,1-.35.9,1.52,1.52,0,0,1-.7.63,2.26,2.26,0,0,1-1,.28,1.36,1.36,0,0,1-1-.28,2,2,0,0,1-.7-.63,3.5,3.5,0,0,1-.35-.9,2.88,2.88,0,0,1-.14-1.11,6.09,6.09,0,0,1,.14-1.11,2.73,2.73,0,0,1,.35-.9,1.52,1.52,0,0,1,.7-.63,2.27,2.27,0,0,1,1-.28,1.47,1.47,0,0,1,1,.28,2,2,0,0,1,.7.63,3.49,3.49,0,0,1,.35.9,5.41,5.41,0,0,1,.14,1.11A6.09,6.09,0,0,1,177,113.38Zm4.87,0a3.49,3.49,0,0,1-.35.9,2,2,0,0,1-.7.63,2.22,2.22,0,0,1-1,.21H178v-5.64h1.81a2,2,0,0,1,1,.21,2,2,0,0,1,.7.63,3.6,3.6,0,0,1,.42.9,5.26,5.26,0,0,1,.07,1A6.09,6.09,0,0,1,181.83,113.38Zm4.17-3.13h-.9v4h.9v.83h-2.71v-.83h.9v-4h-.9v-.83H186Zm5.84,2h-.14a5.41,5.41,0,0,1-.14,1.11,3.49,3.49,0,0,1-.35.9,2,2,0,0,1-.7.63,2.22,2.22,0,0,1-1,.21,1.36,1.36,0,0,1-1-.28,2,2,0,0,1-.7-.63,2.05,2.05,0,0,1-.35-.9,5.41,5.41,0,0,1-.14-1.11,6.09,6.09,0,0,1,.14-1.11,2.73,2.73,0,0,1,.35-.9,2,2,0,0,1,.7-.63,2.26,2.26,0,0,1,1-.28.63.63,0,0,1,.35.07c.14,0,.21.07.35.14a1,1,0,0,1,.28.21,1.52,1.52,0,0,1,.21.35v-.7h.83v2h-.83a1,1,0,0,0-.07-.49l-.21-.42a.69.69,0,0,0-.35-.28,1,1,0,0,0-.49-.07.85.85,0,0,0-.63.21,3,3,0,0,0-.42.49c-.07.21-.14.42-.21.7a4.25,4.25,0,0,0,0,1.53c.07.28.14.49.21.7a.94.94,0,0,0,.42.49.85.85,0,0,0,.63.21,1.32,1.32,0,0,0,.9-.35A2.79,2.79,0,0,0,191,113h-1.18v-.83h2Zm4.52,1.11a2.73,2.73,0,0,1-.35.9,1.52,1.52,0,0,1-.7.63,2.26,2.26,0,0,1-1,.28,1.36,1.36,0,0,1-1-.28,2,2,0,0,1-.7-.63,3.5,3.5,0,0,1-.35-.9,2.88,2.88,0,0,1-.14-1.11,6.09,6.09,0,0,1,.14-1.11,2.73,2.73,0,0,1,.35-.9,1.52,1.52,0,0,1,.7-.63,2.27,2.27,0,0,1,1-.28,1.47,1.47,0,0,1,1,.28,2,2,0,0,1,.7.63,3.49,3.49,0,0,1,.35.9,5.41,5.41,0,0,1,.14,1.11A6.09,6.09,0,0,1,196.37,113.38Zm4.8.35-.42.77-1.25-.83.14,1.46h-.83l.14-1.46-1.25.83-.42-.77,1.32-.63-1.32-.63.42-.77,1.25.83-.14-1.46h.83l-.14,1.46,1.25-.83.42.77-1.32.63Zm1.6,2.5-.7-.35,3.34-6.68.7.35Z"/></svg>