<?xml version="1.0" encoding="utf-8"?>
<!-- Generator: Adobe Illustrator 19.0.0, SVG Export Plug-In . SVG Version: 6.00 Build 0)  -->
<svg version="1.1" id="artboard1" xmlns="http://www.w3.org/2000/svg" xmlns:xlink="http://www.w3.org/1999/xlink" x="0px" y="0px"
	 viewBox="0 0 500 500" style="enable-background:new 0 0 500 500;" xml:space="preserve">
<style type="text/css">
	.st0{fill:#323232;}
</style>
<g>
	<path class="st0" d="M127.8,130.7c0,0-1.6-0.4-4.7-1.3c-3.1-0.8-5.6-1.2-7.5-1.2c-4.6,0-8.3,1.4-11.1,4.2
		c-2.8,2.8-4.1,6.5-4.1,11.1c0,4.8,1.5,8.5,4.5,11.2c3,2.8,6.9,4.1,11.8,4.1c2.3,0,4.9-0.6,7.7-1.8c2.9-1.2,4.2-1.8,4-1.8
		c0.9,0,2,3.3,3.4,9.9c1.2,6,1.8,10,1.8,11.9c0,2-3.2,3.7-9.6,5.1c-5,1.1-9,1.7-12,1.7c-11.4,0-20.9-3.8-28.2-11.5
		c-7.4-7.7-11.1-17.3-11.1-28.7c0-11.4,3.7-20.9,11.2-28.7c7.4-7.7,16.9-11.6,28.2-11.6c7.7,0,14.5,1.7,20.4,5c1.3,0.7,2,1.4,2,2.1
		c0,0.7-0.7,3.7-2.3,9.1c-1.5,5.3-2.4,8.4-2.8,9.5C128.8,130.2,128.3,130.7,127.8,130.7z"/>
	<path class="st0" d="M194.2,133.4c0,2-1.1,3-3.3,3c-1,0-2.5-0.1-4.4-0.2c-1.9-0.1-3.3-0.2-4.2-0.2c-4.3,0-7.2,0.7-8.8,2
		c-1.5,1.3-2.3,4.1-2.3,8.2c0,2.2,0,5.6,0.1,10.1c0.1,4.6,0.1,7.9,0.1,10.1c0,1.5,0.1,3.8,0.3,6.7c0.2,3,0.3,5.2,0.3,6.6
		c0,1.3-0.9,1.9-2.6,2.1c-2.5,0.2-6.3,0.3-11.5,0.3c-4.9,0-8.9-0.1-11.8-0.5c-1.7-0.2-2.6-1-2.6-2.5c0-4.2,0-10.4,0.1-18.6
		c0.1-8.3,0.1-14.5,0.1-18.6c0-12.2-1.1-22.2-3.4-30.1c-0.1-0.5-0.1-0.8-0.1-1.1c0-0.8,0.4-1.3,1.2-1.6c2.9-0.3,7-0.9,12.5-1.7
		c8.2-1.6,12.4-2.4,12.7-2.4c0.9,0,1.5,1.6,1.8,4.9c0.3,3.3,0.7,4.9,1.4,4.9c-0.7,0,1.4-1.4,6.4-4.1c5-2.7,9.8-4.1,14.4-4.1
		c2.9,0,4.3,0.6,4.3,1.9c0,1.5-0.1,3.7-0.5,6.4c-0.3,3-0.5,5.1-0.5,6.4c0,1.5,0,3.5,0.1,6C194.2,130.5,194.2,132.5,194.2,133.4z"/>
	<path class="st0" d="M274.6,139.7c0,5.3-1.7,8.2-5.1,9c-0.6,0.1-5.9,0.7-16.1,1.7c-6.1,0.7-15.3,1.5-27.4,2.4
		c0.7,3.4,2.9,5.9,6.6,7.7c3,1.5,6.4,2.2,10.3,2.2c4.6,0,9.3-1.2,13.9-3.7c2-1.2,3.9-2.5,5.9-3.7c1.1,0.5,2.9,3.2,5.5,7.9
		c2.6,4.8,3.8,7.8,3.8,9.1c0,0.4-0.4,1-1.2,1.8c-6.3,6.8-16.2,10.2-29.5,10.2c-12.4,0-22.3-3.6-29.9-10.8
		c-7.8-7.3-11.7-17.1-11.7-29.3c0-11.9,3.5-21.7,10.5-29.3c7.1-7.9,16.6-11.9,28.5-11.8c10,0,18.4,3.6,25.4,10.9
		C271.1,121,274.6,129.6,274.6,139.7z M247.4,134.9c0-3.2-1.1-6.1-3.4-8.5c-2.3-2.4-5-3.7-8.2-3.7c-3.3,0-6,1.4-8.1,4.1
		c-2,2.5-3,5.5-3,8.9c0,1.4,0.7,2.1,2.2,2.1c3.9,0,9.8-0.6,17.9-1.8C246.5,135.9,247.4,135.5,247.4,134.9z"/>
	<path class="st0" d="M361.4,143c0,4,0.2,9.9,0.7,17.8c0.5,7.9,0.7,13.8,0.7,17.7c0,2.1-0.9,3.2-2.7,3.3c-6.4,0.5-13.8,0.7-22.1,0.7
		c-1,0-1.7-1.5-2-4.4c-0.3-3-0.7-4.5-1.2-4.6c-0.4,0.2-0.9,0.7-1.6,1.3c-5.8,5.9-12,8.8-18.7,8.8c-10.1,0-18.5-4-25.1-12
		c-6.3-7.5-9.4-16.4-9.4-26.8c0-12,3.2-21.6,9.7-29c6.8-7.5,16-11.3,27.7-11.3c8.1,0,14.6,2.8,19.3,8.6c0.2,0.2,0.4,0.4,0.5,0.4
		c0.5,0,1-1.2,1.6-3.8c0.6-2.5,1.3-3.8,2.2-3.8c1.9,0,5.6,0.5,11,1.6c5.1,1,8.8,1.9,11.1,2.6c0.8,0.3,1.2,0.7,1.2,1.3
		c0,0.2-0.1,0.7-0.2,1.6C362.2,122.6,361.4,132.5,361.4,143z M336.3,143.5c0-4.4-1.4-8.1-4.1-10.9c-2.8-2.9-6.4-4.3-10.9-4.3
		c-4.5,0-8,1.4-10.8,4.3c-2.8,2.9-4.2,6.5-4.2,11c0,4.2,1.5,7.8,4.4,10.8c2.9,3,6.4,4.5,10.6,4.5c4.4,0,8-1.4,10.8-4.3
		C334.9,151.6,336.3,148,336.3,143.5z"/>
	<path class="st0" d="M428.4,133.4c0,2-1.1,3-3.4,3c-1,0-2.4-0.1-4.3-0.2c-1.9-0.1-3.3-0.2-4.3-0.2c-4.3,0-7.2,0.7-8.8,2
		c-1.5,1.3-2.3,4.1-2.3,8.2c0,2.2,0,5.6,0.1,10.1c0.1,4.6,0.1,7.9,0.1,10.1c0,1.5,0.1,3.8,0.3,6.7c0.2,3,0.3,5.2,0.3,6.6
		c0,1.3-0.9,1.9-2.6,2.1c-2.5,0.2-6.3,0.3-11.5,0.3c-4.9,0-8.9-0.1-11.8-0.5c-1.7-0.2-2.5-1-2.5-2.5c0-4.2,0-10.4,0.1-18.6
		c0.1-8.3,0.1-14.5,0.1-18.7c0-12.2-1.1-22.2-3.3-30.1c-0.1-0.5-0.2-0.8-0.2-1.1c0-0.8,0.4-1.3,1.2-1.6c2.8-0.3,7-0.9,12.5-1.7
		c8.2-1.6,12.4-2.4,12.7-2.4c0.9,0,1.5,1.6,1.8,4.9c0.3,3.3,0.7,4.9,1.4,4.9c-0.7,0,1.4-1.4,6.4-4.1c5-2.7,9.8-4.1,14.4-4.1
		c2.9,0,4.3,0.6,4.3,1.9c0,1.5-0.1,3.7-0.5,6.4c-0.3,2.9-0.5,5.1-0.6,6.4c0,1.5,0,3.5,0.1,6C428.4,130.5,428.4,132.5,428.4,133.4z"
		/>
	<path class="st0" d="M166.8,244.5c0,12.6-3.7,22.9-11.1,31.2c-7.6,8.6-17.6,12.8-30,12.8c-4.5,0-9.4-1.1-14.5-3.4
		c-5.2-2.2-7.5-3.4-7-3.4c-0.8,0-1.1,0.9-1.1,2.6c0,3,0.1,7.5,0.4,13.5c0.3,6,0.5,10.5,0.5,13.5c0,1.9-1,2.8-2.9,2.8l-17.9,0.1
		c-4.1,0-6.7-0.1-7.8-0.5c-1.8-0.4-2.6-1.5-2.6-3.2l0.2-67.7c0-13.6-1-25.2-3.1-34.5c-0.1-0.6-0.2-1.1-0.2-1.5c0-0.9,0.3-1.5,1-1.7
		c2.3-0.9,6.6-1.9,13.1-2.8c6.3-1,10.8-1.5,13.6-1.5c2.3,0,3.6,1.5,3.9,4.5c0.3,3,0.7,4.5,1.2,4.5c-0.6,0,1.9-1.6,7.5-4.8
		c5.6-3.2,10.7-4.8,15.2-4.8c12.7,0,22.9,4.2,30.5,12.6C163.1,221.1,166.8,231.6,166.8,244.5z M134.2,244.3c0-4.7-1.4-8.8-4.3-12.3
		c-3.1-3.7-6.9-5.5-11.5-5.6c-4.7,0-8.4,1.9-11.3,5.6c-2.5,3.3-3.7,7.4-3.7,12.3c0,5,1.3,9.1,3.9,12.4c2.8,3.6,6.6,5.4,11.4,5.4
		C129.1,262.1,134.2,256.2,134.2,244.3z"/>
	<path class="st0" d="M258.7,239.1c0,5.9-1.9,9.3-5.7,10.1c-0.6,0.1-6.7,0.8-18.2,1.9c-6.9,0.8-17.2,1.7-30.9,2.7
		c0.8,3.8,3.3,6.7,7.5,8.7c3.4,1.6,7.3,2.4,11.6,2.4c5.2,0,10.5-1.4,15.7-4.2c2.2-1.4,4.4-2.8,6.7-4.2c1.2,0.6,3.3,3.6,6.2,9
		c2.9,5.4,4.3,8.8,4.3,10.3c0,0.4-0.4,1.1-1.3,2.1c-7.2,7.7-18.3,11.5-33.3,11.5c-14,0-25.2-4.1-33.7-12.2
		c-8.8-8.2-13.2-19.3-13.2-33.1c0-13.5,4-24.5,11.8-33.1c8.1-8.9,18.8-13.4,32.2-13.4c11.3,0,20.8,4.1,28.7,12.3
		C254.8,218,258.7,227.8,258.7,239.1z M228,233.7c0-3.7-1.3-6.8-3.8-9.6c-2.6-2.8-5.7-4.1-9.2-4.1c-3.7,0-6.7,1.5-9.1,4.6
		c-2.2,2.9-3.3,6.2-3.3,10.1c0,1.6,0.8,2.4,2.5,2.4c4.3,0,11.1-0.7,20.2-2C227,234.8,228,234.3,228,233.7z"/>
	<path class="st0" d="M326.7,232c0,2.3-1.3,3.4-3.8,3.4c-1.1,0-2.7-0.1-4.9-0.2c-2.1-0.1-3.7-0.2-4.8-0.2c-4.9,0-8.2,0.7-10,2.3
		c-1.7,1.5-2.6,4.6-2.6,9.2c0,2.5,0.1,6.3,0.1,11.5c0.1,5.1,0.1,8.9,0.1,11.4c0,1.7,0.1,4.3,0.4,7.6c0.2,3.4,0.4,5.9,0.4,7.5
		c0,1.4-1,2.2-2.9,2.4c-2.8,0.3-7.1,0.3-12.9,0.3c-5.6,0-10-0.2-13.3-0.5c-1.9-0.2-2.9-1.2-2.9-2.9c0-4.7,0-11.7,0.1-21.1
		c0-9.4,0.1-16.4,0.1-21.1c0-13.8-1.3-25.1-3.8-34c-0.1-0.5-0.2-1-0.2-1.3c0-0.9,0.4-1.5,1.3-1.8c3.2-0.4,8-1,14.2-2
		c9.2-1.8,14-2.7,14.3-2.7c1.1,0,1.7,1.9,2,5.6c0.3,3.7,0.8,5.5,1.6,5.5c-0.8,0,1.6-1.5,7.2-4.6c5.6-3,11.1-4.6,16.3-4.6
		c3.3,0,4.9,0.7,4.9,2.1c0,1.7-0.2,4.1-0.5,7.2c-0.3,3.3-0.6,5.7-0.6,7.2c0,1.7,0,4,0.1,6.8C326.6,228.6,326.7,230.9,326.7,232z"/>
	<path class="st0" d="M427.4,206.9c0,4.3-0.2,10.9-0.6,19.5c-0.4,8.7-0.6,15.2-0.6,19.5c0,4.2,0.1,10.5,0.4,19
		c0.3,8.4,0.4,14.7,0.4,18.9c0,1.5-0.7,2.6-2.2,3c-2.2,0.6-6.9,0.9-14.1,0.9c-6.4,0-10.9-0.2-13.4-0.5c-1.1-0.2-1.8-0.9-2.1-2.1
		c-0.2-1.8-0.3-3.5-0.5-5.3c-0.3-2.7-0.7-4-1.3-4c0.8,0-2.1,2-8.9,6c-6.7,4-12.9,6-18.4,6c-15.5,0-24.7-7-27.6-21
		c-1.3-6.5-1.9-16-1.9-28.3c0-13.4,1.1-23.9,3.3-31.7c0.7-2.4,1.9-3.6,3.6-3.6c2.7,0,6.8,0.1,12.3,0.1c5.5,0.1,9.6,0.1,12.3,0.1
		c1.8,0,2.7,0.8,2.7,2.3c0,0.4-0.1,1-0.2,1.8c-1.2,8-1.9,16-1.9,24.2c0,10.2,0.3,17.2,1,20.9c1,6.4,4.9,9.6,11.5,9.7
		c2.6,0,5.4-1.2,8.4-3.4c3-2.3,4.6-4.7,4.7-7.1c0.1-2.2,0.2-16.9,0.2-44.1c0-1.9,0.1-3.1,0.4-3.4c0.4-0.6,1.4-0.9,3.2-0.9
		c2.9,0,7.2,0.1,13,0.1c5.8,0.1,10.1,0.1,13,0.1c1.8,0,2.8,0.4,3.1,1.3C427.3,205.3,427.4,206,427.4,206.9z"/>
	<path class="st0" d="M112,376c0,5.7-2,10.6-5.9,14.6c-3.9,4.1-8.8,6.1-14.4,6.1c-5.6,0-10.5-2-14.4-6.1c-3.9-4.1-5.9-9-5.9-14.6
		c0-5.7,2-10.5,5.9-14.6c3.9-4.1,8.8-6.1,14.4-6.1c5.7,0,10.5,2,14.4,6.1C110.1,365.5,112,370.3,112,376z"/>
	<path class="st0" d="M181.4,337.9c-0.1,0-1.8-0.5-5.2-1.4c-3.4-0.9-6.2-1.4-8.4-1.4c-5.1,0-9.2,1.5-12.3,4.6
		c-3.1,3.1-4.6,7.2-4.6,12.4c0,5.3,1.7,9.5,5.1,12.5c3.4,3.1,7.7,4.6,13.1,4.6c2.6,0,5.4-0.6,8.6-1.9c3.2-1.3,4.7-2,4.5-2
		c1,0,2.2,3.7,3.8,11c1.3,6.7,2,11.2,2,13.4c0,2.2-3.6,4.1-10.7,5.7c-5.6,1.2-10,1.8-13.5,1.8c-12.7,0-23.2-4.3-31.5-12.8
		c-8.3-8.6-12.4-19.2-12.4-32c0-12.7,4.1-23.3,12.5-32c8.3-8.6,18.8-12.9,31.4-12.9c8.6,0,16.2,1.8,22.7,5.5
		c1.5,0.8,2.3,1.6,2.3,2.4c0,0.7-0.9,4.1-2.6,10.2c-1.6,5.9-2.7,9.4-3.2,10.6C182.4,337.3,181.9,337.9,181.4,337.9z"/>
	<path class="st0" d="M281.3,352.3c0,13.2-4,23.9-12.1,32.1c-8.1,8.2-18.7,12.3-31.8,12.3c-12.7,0-23.2-4-31.4-12.1
		c-8.2-8.1-12.3-18.5-12.3-31.2c0-13.4,3.9-24.3,11.8-32.6c7.9-8.3,18.5-12.5,31.9-12.5c13.1,0,23.6,4.1,31.7,12.3
		C277.3,328.6,281.3,339.3,281.3,352.3z M252.9,352.3c0-4.6-1.4-8.6-4.3-12.1c-2.8-3.5-6.5-5.2-11-5.2c-4.6,0-8.3,1.8-11.3,5.4
		c-2.8,3.3-4.2,7.4-4.2,12c0,4.6,1.4,8.7,4.2,12c2.9,3.6,6.7,5.4,11.3,5.4c4.5,0,8.2-1.8,11.2-5.4C251.5,361,252.9,357,252.9,352.3z
		"/>
	<path class="st0" d="M430.4,391.8c0,2-0.9,3.2-2.6,3.4c-1.7,0.2-6,0.3-12.8,0.3c-7.1,0-11.4-0.1-13.2-0.5c-1.7-0.3-2.6-1.8-2.6-4.3
		c0-2.7,0.1-6.6,0.2-11.9c0.2-5.3,0.3-9.3,0.3-11.9c0-10.1-0.1-17.3-0.3-21.6c-0.3-6.9-3.6-10.3-9.8-10.3c-2.7,0-5.4,1.1-8.1,3.4
		c-2.7,2.3-4.2,4.8-4.4,7.6c-0.3,2.4-0.3,9.5-0.3,21.3c0,2.7,0.1,6.8,0.3,12.4c0.2,5.5,0.3,9.7,0.3,12.5c0,1.9-0.9,2.8-2.5,2.8
		h-26.3c-1.6,0-2.4-1.2-2.4-3.6c0-2.7,0.1-6.8,0.3-12.2c0.2-5.5,0.3-9.5,0.3-12.3c0-2.2-0.1-5.4-0.2-9.7c-0.1-4.3-0.2-7.6-0.2-9.8
		c0-8.3-3.1-12.4-9.4-12.4c-2.6,0-5.3,1-8.2,2.9c-3.2,2.2-4.9,4.4-4.9,6.8c0,5.3,0,13.1,0.1,23.6c0.1,10.5,0.1,18.3,0.1,23.5
		c0,1.5-0.2,2.4-0.5,2.7c-0.3,0.3-1.3,0.6-2.7,0.7c-2.6,0.2-6.7,0.3-12.3,0.3c-3.6,0-7.8-0.1-12.4-0.5c-1.4-0.1-2.2-0.3-2.5-0.6
		c-0.3-0.3-0.4-1.1-0.4-2.6c0-4.6,0-11.5,0.1-20.8c0-9.2,0.1-16.2,0.1-20.8c0-9.5-0.7-20.1-2.1-32c-0.1-0.7-0.2-1.2-0.2-1.6
		c0-1,0.4-1.6,1.2-2c1.3-0.5,3.7-1,7.2-1.3c4.3-0.4,6.9-0.7,7.7-0.8c0.6-0.1,2.9-0.7,6.8-1.8c2.8-0.8,5.1-1.2,6.9-1.2
		c1.1,0,1.7,2,1.7,6c0.1,4,0.3,6,0.7,6c0.6-0.2,1.3-0.7,2-1.2c5.2-4,9.3-6.8,12.3-8.3c4.4-2.1,9.3-3.2,14.5-3.2
		c5.3,0,10.1,1.2,14.2,3.5c4.7,2.7,7.7,6.4,9.1,11.2c3.1-4.2,7.3-7.6,12.7-10.5c5.4-2.8,10.6-4.2,15.7-4.2c7.6,0,13.8,1.7,18.6,5.3
		c5.4,4,8.1,9.7,8.1,17.1c0,3.1-0.1,7.7-0.3,13.8c-0.2,6.2-0.3,10.8-0.3,13.8c0,3.6,0.1,9.2,0.3,16.4
		C430.3,382.6,430.4,388.1,430.4,391.8z"/>
</g>
</svg>
