<svg id="Layer_1" data-name="Layer 1" xmlns="http://www.w3.org/2000/svg" width="300" height="162" viewBox="0 0 300 162"><defs><style>.cls-1{fill:#323232;}</style></defs><title>Untitled-1</title><path class="cls-1" d="M197.76,101.34c-.15-.59-.3-1-.44-1.56a22.63,22.63,0,0,1-5.41,1.56c-3.55.59-5.7,0-9.18-.74a43.83,43.83,0,0,1-7.26-2.44c.81-2.81,1.41-9.48,1.7-12.74s.44-6.52.44-9.78c-.15-3.7-.3-7.26-.74-10.52-.74-3.11-2-4.37-2.52-4.81a3.18,3.18,0,0,0-2-.59,8,8,0,0,0-3.11.74A12.65,12.65,0,0,0,166.43,62,5,5,0,0,0,165,63.27a17.74,17.74,0,0,1,2.52,7.26,100.11,100.11,0,0,1,.81,10.89,11.19,11.19,0,0,1-3.41,3,8.67,8.67,0,0,1-4.22,1.41,2.84,2.84,0,0,1-2.15-.74,4.22,4.22,0,0,1-1-2.67,36.06,36.06,0,0,1,.74-7.55c.44-2.67.81-5.55,1.26-8.37a52.75,52.75,0,0,0,.74-8.07,12.36,12.36,0,0,0-1.85-6.81c-1.26-1.7-3.26-2.52-6.22-2.52a15.37,15.37,0,0,0-5.41,1.41c-1.7.81-3.55,1.85-5.41,2.81a35.6,35.6,0,0,1-5.85,2.81A20.91,20.91,0,0,1,129,57.5a27,27,0,0,1-6.07-.81,27.27,27.27,0,0,1-7-3.41,11.54,11.54,0,0,0-3.11,4,8.14,8.14,0,0,0-1,4,5,5,0,0,0,2,4c1.26,1,3.26,1.56,6.07,1.41a20.58,20.58,0,0,0,7.41-1.85c2.44-1.11,4.81-2.44,7.41-3.85a81.32,81.32,0,0,1,8.07-3.85.89.89,0,0,0,.59-.15H144a4.63,4.63,0,0,1,3.85,1.7,12,12,0,0,1,2,4.37,26,26,0,0,1,.59,6.07,86.86,86.86,0,0,1-.3,8.81c-.15,3-.3,5.55-.3,7.78a4.38,4.38,0,0,0,1.85,3.55,8.16,8.16,0,0,0,4.52,1.11A17.47,17.47,0,0,0,168.65,84c0,1.56-.15,10.81-.3,12.07-.59,0-1.26-.15-1.85-.15h-2a16.51,16.51,0,0,0-6.07,1.26,14.06,14.06,0,0,0-5.11,3.41,8.14,8.14,0,0,0-2.15,5.7,5.19,5.19,0,0,0,2.3,4.37,9.16,9.16,0,0,0,5.41,1.41c3.7-.15,6.81-1,9.18-2.67a19.48,19.48,0,0,0,5.85-6.81c2.44,1,9.78,7.63,17,7.55a6.5,6.5,0,0,0,5.55-2.44,7,7,0,0,0,1.56-5c-.15-.44-.15-.89-.3-1.41Zm-32.44,4.81a4,4,0,0,1-3.41,2,2.78,2.78,0,0,1-2-1.11,3.88,3.88,0,0,1-.81-2.59,3,3,0,0,1,1.11-2.52,7.4,7.4,0,0,1,4.15-1.26h1.56a5.77,5.77,0,0,1,1.56.3,13.85,13.85,0,0,1-2.15,5.18ZM115.18,87.71c0-.15-.15-.3.15-.15a5.42,5.42,0,0,0,1.85-2.15,6.34,6.34,0,0,0,.89-3.26A3.18,3.18,0,0,0,117,79.49a6.9,6.9,0,0,0-4-1.26c-.59-2-1.11-4.15-1.56-6.37l-1.56-7-1.11-4.81a3.47,3.47,0,0,0-1.85-2,8.78,8.78,0,0,0-3.11-.81,18.18,18.18,0,0,0-2.52-.15c-1,0-2.3,1-3.7,3a39.49,39.49,0,0,0-4.22,7.48,105.58,105.58,0,0,0-4.15,10.07,100.3,100.3,0,0,0-3,10.37c-.59,0-1,.15-1.41.15H83.41c-1.7,0,.3,8.07,1.7,7.41.44-.15,0,.89,0,1.26a5.57,5.57,0,0,0,1.7,3.7,6,6,0,0,0,4.22,1.7c.15-1.26,2.67-9.11,3.41-11.48A60.39,60.39,0,0,1,100,88.3a23,23,0,0,1,5.7-1.41c1.41,6.74,11,4.59,9.48.81Zm-14.74-5.55c-1.41.74-2.81,1.41-4.37,2.15l3-9c1-3,2.15-5.85,3.26-8.52h.3q.89,7.22,2,13.33c-1.26.59-2.74,1.26-4.15,2ZM109,92.52c-1.11-.44-2.67-.15-4.52.59a16.59,16.59,0,0,0-4.67,3.26c-1.41,1.41-2.67,2.81-4.15,4.52a55.2,55.2,0,0,1-4.52,4.81c-.15.15-.3.3-.44.3s-.3.15-.44.15a3.27,3.27,0,0,1-3.11-.15,7.44,7.44,0,0,1-2.52-2.52,4.4,4.4,0,0,1-.59-.81c0-.15-.15-.3-.15-.44A25,25,0,0,1,81.34,93a87.19,87.19,0,0,1-.89-13.18c-.15-1.85-.15-4.15-.15-6.52,0-2.59,0-5.7-.15-9.48a2.81,2.81,0,0,0-1.41-1.41,12.54,12.54,0,0,0-2.67-1.11A12.11,12.11,0,0,0,73,60.83a3.09,3.09,0,0,0-2,.44c-1.56.89-.74,4-.74,4.52.15,3.85-1.26,6.81-2,9.11a49.32,49.32,0,0,1-2,5.41c-.44.74-.74,1.41-1.11,2A8.45,8.45,0,0,1,64,83.71a2.83,2.83,0,0,0-.3-1,10.74,10.74,0,0,1-.44-1.41c-.15-1-.59-2.44-1-4.22-.59-1.85-1-4.22-1.7-7.26-.44-2.15-.81-4-1.11-5.41a7,7,0,0,0-1.41-3.26,3.86,3.86,0,0,0-3.26-1.11c-2.81.3-4.81,4.37-3.26,6.81-1.26,5.85-2.52,11-3.55,14.74S46.31,88,45.72,90s-1,3.41-1.26,4.22a21.2,21.2,0,0,0-.59,2.3V99a4.53,4.53,0,0,0,2.15,3.7,12.09,12.09,0,0,0,4.52,1.56,24,24,0,0,0,4.37.3h2a26.89,26.89,0,0,1-2.15-6.37,35.79,35.79,0,0,1-.74-7,54,54,0,0,1,.15-7c.3-2.3.44-4.37.74-6.22,1,3.26,1.85,7,3,10.89,1.11,4.15,2.3,8.37,3.55,13,.15.44.74.74,1.7,1a10.26,10.26,0,0,0,3,.44c.3,0,.59-.15.81-.15a.91.91,0,0,0,.59-.3c.44-3.7,1-7.26,1.7-10.81a89,89,0,0,1,2.3-9.26c.3,5.11.89,9.92,1.56,14.29s1,15.92,8.52,16.74a9.82,9.82,0,0,0,8.37-2.3,15.77,15.77,0,0,0,3-3.41,37.08,37.08,0,0,1,3.26-3.55,13.66,13.66,0,0,1,4.22-2.67,11.17,11.17,0,0,1,4.37-1,16.71,16.71,0,0,1,5.85.59,9.2,9.2,0,0,0,1.11-3.7,8.91,8.91,0,0,0-.44-3,3.12,3.12,0,0,0-2.3-2.37ZM147.55,77c.44-5.11.59-10.81.59-12.89a2.86,2.86,0,0,0-.81-2.3,3.1,3.1,0,0,0-2.15-.59,8.74,8.74,0,0,0-2.67.44c-.81.3-1.7.59-2.52,1a15.44,15.44,0,0,0-2.67,1.41c.44,1.41.74,5.7,1,9.48a42,42,0,0,1,.44,5.85c0,3-.15,5.92-.3,9.11-.15,3-.44,5.85-.74,8.52a34.79,34.79,0,0,1-3-5.85,62,62,0,0,1-3.55-9.33,85.76,85.76,0,0,1-2.67-12.37,1.92,1.92,0,0,0-1.11-1.56,5.54,5.54,0,0,0-2.44-.44,9.18,9.18,0,0,0-3.41.59,12.23,12.23,0,0,0-3.11,1.56c-1.7.89-.15,5.55-.15,5.55,1.56,5.41,2.81,10.52,1.41,16.88a15.45,15.45,0,0,1-1.26,4.52c-.74,1.56-1.7,4.37-3,5.85,1,1.41,3.41,3.55,6.07,3.41a5.78,5.78,0,0,0,3.55-1.11c3-2,2.3-7.63,2.15-9-.15-.89-1.41-8.81-1.26-10.07,2,3.7,4,7.55,5.92,11.92a94.35,94.35,0,0,1,5,13.77c0,.3.44.59,1.26.81a14.63,14.63,0,0,0,4.15.44,17,17,0,0,0,2.67-.15,28.35,28.35,0,0,0,3.11-.59,18.23,18.23,0,0,1-1.7-4.81,41.42,41.42,0,0,1-.59-6.37,84.42,84.42,0,0,1,.59-12.07c.37-4.22.74-7.11,1.18-11.63Zm67.39,23.55a61.55,61.55,0,0,1-7.26-15.48,17.22,17.22,0,0,1,2.67.59,25.32,25.32,0,0,1,5.85,2.67,15.51,15.51,0,0,0,3.41-4.22A8.13,8.13,0,0,0,220.71,80a4.9,4.9,0,0,0-2.15-4c-1.41-1-3.7-1.41-6.67-1.41a15.19,15.19,0,0,0-4.52.74,12.31,12.31,0,0,0-2.15.74c-.59-2-1.11-4.15-1.56-6.37l-1.56-7L201,57.94a3.25,3.25,0,0,0-1.85-2,9.21,9.21,0,0,0-3.11-.81,18.18,18.18,0,0,0-2.52-.15c-1,0-2.3,1-3.7,3a38.12,38.12,0,0,0-4.22,7.55,105.58,105.58,0,0,0-4.15,10.07c-1.26,3.55-4.22,11.33-4.15,19.25a5.28,5.28,0,0,0,1.7,3.7c1,1,2.67,1.56,5,1.7.15-1.26.59-3,1-5s1-4.15,1.7-6.52a60.39,60.39,0,0,1,5.55-2.44,28.89,28.89,0,0,1,6.07-1.41A88.7,88.7,0,0,0,206.2,106c2.52,4.22,4.22,6.07,8.37,6.22s5.85-1.85,8.81-5.85c-3.33-.52-6.15-2.52-8.44-5.78ZM193.09,80.3c-1.41.74-2.81,1.41-4.37,2.15l3-9c1.11-3,2.15-5.85,3.26-8.52h.3q.89,7.22,2,13.33a42.71,42.71,0,0,0-4.15,2Zm42,23.85a5.23,5.23,0,0,0,3.55-1.7,10.42,10.42,0,0,0,2.15-4,18.08,18.08,0,0,0,.74-4.81,10.58,10.58,0,0,0-1-4.37,3.34,3.34,0,0,0-3.11-1.85,3.94,3.94,0,0,0-2.15.59,8.77,8.77,0,0,0-2.44,2.81,6.5,6.5,0,0,0-.44-2.81,1.39,1.39,0,0,0-1.41-.81,10.29,10.29,0,0,0-1.7.3,18.71,18.71,0,0,0-2.44.81,3.5,3.5,0,0,1,.81,2A14.68,14.68,0,0,1,228,93v5.55s0,3.41-.15,4.67-.3,2.44-.44,3.41a24,24,0,0,0-.15,3.41,1.32,1.32,0,0,0,.59,1.26,1.7,1.7,0,0,0,1.26.3,5.79,5.79,0,0,0,2-.44c.74-.3,1.26-.59,1.7-.74a7.7,7.7,0,0,1,.74-.44,8.75,8.75,0,0,1-.74-2.52,20.07,20.07,0,0,1-.3-3v-1.56a3.65,3.65,0,0,0,1.11.74c.37.52.89.52,1.48.52Zm-2.67-4a23.27,23.27,0,0,1,.44-5.11A8.78,8.78,0,0,1,234,92.23c.44-.59.81-.89,1.26-.89.15,0,.44.15.44.59a4.11,4.11,0,0,1,.15,1.41,24.38,24.38,0,0,1-.3,3.11,19.21,19.21,0,0,1-1.11,3,3.41,3.41,0,0,1-2.15,1.56l.15-.81Zm18.29-2.52a6.4,6.4,0,0,0,3.41-1,7.41,7.41,0,0,0,2.15-2.15,6,6,0,0,0,.74-2.67,5.41,5.41,0,0,0-1.56-3.7,6.27,6.27,0,0,0-4.52-1.56,6.8,6.8,0,0,0-4,1.56A11.43,11.43,0,0,0,243,96.52a8.26,8.26,0,0,0,1.26,4.81,7,7,0,0,0,2.81,2.52,9.53,9.53,0,0,0,3.55.74,9,9,0,0,0,4.22-1.11c1.11-.74,1.85-1.41,1.85-2.3a1.91,1.91,0,0,0-.74-1.41,3.55,3.55,0,0,0-2-.74,6.13,6.13,0,0,1-1.26,2,2.88,2.88,0,0,1-1.7.74,2.73,2.73,0,0,1-2.3-1.26,6.26,6.26,0,0,1-.74-3c.44.15,1,.15,1.41.3a2.82,2.82,0,0,1,1.33-.22Zm.67-7.11c.15,0,.44.15.44.3a1.74,1.74,0,0,1,.15.81,4.55,4.55,0,0,1-.81,2.3A5.37,5.37,0,0,1,248,95.49a9.71,9.71,0,0,1,1.11-3.41,2.72,2.72,0,0,1,2.22-1.56ZM221.6,101.19a3.12,3.12,0,0,0,2.52-1.11,3.49,3.49,0,0,0,.81-2.44,3.09,3.09,0,0,0-.81-2.15,3.27,3.27,0,0,0-2.44-.81,2.89,2.89,0,0,0-2.44,1.26,3.81,3.81,0,0,0-.81,2.52,3,3,0,0,0,.81,2,3.22,3.22,0,0,0,2.37.74Z"/></svg>