<?xml version="1.0" encoding="utf-8"?>
<!-- Generator: Adobe Illustrator 19.0.0, SVG Export Plug-In . SVG Version: 6.00 Build 0)  -->
<svg version="1.1" id="Capa_1" xmlns="http://www.w3.org/2000/svg" xmlns:xlink="http://www.w3.org/1999/xlink" x="0px" y="0px"
	 viewBox="-152 375.9 290 90" style="enable-background:new -152 375.9 290 90;" xml:space="preserve">
<style type="text/css">
	.st0{fill:#323232;}
</style>
<path class="st0" d="M56.8,447.9c-0.2-0.8-0.4-1.3-0.6-2.1c-2.7,1-4.4,1.7-7.3,2.1c-4.8,0.8-7.7,0-12.4-1c-4-0.8-6.5-2.1-9.8-3.3
	c1.1-3.8,1.9-12.8,2.3-17.2c0.4-4.4,0.6-8.8,0.6-13.2c-0.2-5-0.4-9.8-1-14.2c-1-4.2-2.7-5.9-3.4-6.5c-0.8-0.6-1.7-0.8-2.7-0.8
	c-1.3,0-2.9,0.4-4.2,1c-1.5,0.6-2.7,1.3-3.8,2.1c-1.1,0.8-1.7,1.3-1.9,1.7c0.6,0.6,2.9,5.2,3.4,9.8c0.6,4.6,1,9.6,1.1,14.7
	c-1.1,1.5-2.7,2.9-4.6,4c-1.9,1.1-3.8,1.9-5.7,1.9c-1.1,0-2.1-0.2-2.9-1c-0.8-0.8-1.1-1.9-1.3-3.6c0-3.1,0.2-6.3,1-10.2
	c0.6-3.6,1.1-7.5,1.7-11.3c0.6-3.8,1-7.5,1-10.9c0-3.8-1-6.9-2.5-9.2c-1.7-2.3-4.4-3.4-8.4-3.4c-2.5,0.2-5,0.8-7.3,1.9
	c-2.3,1.1-4.8,2.5-7.3,3.8c-2.5,1.5-5,2.7-7.9,3.8c-2.7,1.1-5.7,1.7-9,1.9c-2.5,0-5.2-0.4-8.2-1.1c-2.9-1-6.1-2.3-9.4-4.6
	c-2.1,1.7-3.3,3.6-4.2,5.4c-1,1.9-1.3,3.6-1.3,5.4c0,2.3,1,4,2.7,5.4c1.7,1.3,4.4,2.1,8.2,1.9c3.4-0.2,6.7-1,10-2.5
	c3.3-1.5,6.5-3.3,10-5.2c3.4-1.9,7.1-3.6,10.9-5.2c0.2,0,0.6,0,0.8-0.2h0.8c2.3,0,4,0.8,5.2,2.3c1.1,1.5,2.1,3.4,2.7,5.9
	c0.6,2.5,0.8,5.2,0.8,8.2c0,4,0,8-0.4,11.9c-0.2,4-0.4,7.5-0.4,10.5c0,2.1,1,3.6,2.5,4.8c1.5,1,3.6,1.5,6.1,1.5
	c2.9,0,5.7-0.8,8.8-2.3c3.1-1.3,5.7-3.4,8-6.3c0,2.1-0.2,14.6-0.4,16.3c-0.8,0-1.7-0.2-2.5-0.2h-2.7c-2.7,0-5.4,0.6-8.2,1.7
	c-2.7,1.1-5.2,2.7-6.9,4.6c-1.9,2.1-2.9,4.6-2.9,7.7c0.2,2.7,1.1,4.6,3.1,5.9c1.9,1.3,4.2,1.9,7.3,1.9c5-0.2,9.2-1.3,12.4-3.6
	s5.9-5.4,7.9-9.2c3.3,1.3,13.2,10.3,23,10.2c3.3,0,5.9-1.1,7.5-3.3c1.5-1.9,2.3-4.2,2.1-6.7C57,449.2,57,448.6,56.8,447.9
	L56.8,447.9z M13,454.4c-1.1,1.7-2.7,2.7-4.6,2.7c-1,0-1.9-0.6-2.7-1.5c-0.8-1-1.1-2.1-1.1-3.5s0.4-2.5,1.5-3.4s2.9-1.5,5.6-1.7h2.1
	c0.8,0,1.3,0.2,2.1,0.4C15.3,450.2,14.3,452.6,13,454.4L13,454.4z M-54.7,429.5c0-0.2-0.2-0.4,0.2-0.2c1-0.6,1.7-1.5,2.5-2.9
	c0.8-1.3,1.2-2.9,1.2-4.4c0-1.5-0.4-2.7-1.5-3.6c-1.2-1-2.9-1.5-5.4-1.7c-0.8-2.7-1.5-5.6-2.1-8.6l-2.1-9.4l-1.5-6.5
	c-0.4-1.1-1.2-2.1-2.5-2.7c-1.3-0.6-2.7-1-4.2-1.1c-1.5-0.2-2.7-0.2-3.4-0.2c-1.3,0-3.1,1.3-5,4c-1.9,2.5-3.8,5.9-5.7,10.1
	c-2.1,4.2-3.8,8.8-5.6,13.6c-1.5,4.8-3.1,9.4-4,14c-0.8,0-1.3,0.2-1.9,0.2h-1.9c-2.3,0,0.4,10.9,2.3,10c0.6-0.2,0,1.2,0,1.7
	c0.2,1.9,0.8,3.6,2.3,5c1.5,1.3,2.7,2.1,5.7,2.3c0.2-1.7,3.6-12.3,4.6-15.5c2.5-1.3,5-2.3,7.5-3.3c2.3-1,5-1.5,7.7-1.9
	C-65.6,437.5-52.7,434.6-54.7,429.5L-54.7,429.5z M-74.6,422c-1.9,1-3.8,1.9-5.9,2.9l4-12.1c1.3-4,2.9-7.9,4.4-11.5h0.4
	c0.8,6.5,1.7,12.5,2.7,18C-70.7,420.1-72.7,421-74.6,422L-74.6,422z M-63.1,436c-1.5-0.6-3.6-0.2-6.1,0.8c-2.3,1.1-4.4,2.5-6.3,4.4
	c-1.9,1.9-3.6,3.8-5.6,6.1s-3.8,4.4-6.1,6.5c-0.2,0.2-0.4,0.4-0.6,0.4s-0.4,0.2-0.6,0.2c-1.5,0.6-3.1,0.6-4.2-0.2
	c-1.3-0.8-2.5-1.9-3.4-3.4c-0.4-0.4-0.6-0.8-0.8-1.1c0-0.2-0.2-0.4-0.2-0.6c-1.7-3.3-2.9-7.3-3.4-12.5c-0.8-5.2-1.2-11.1-1.2-17.8
	c-0.2-2.5-0.2-5.6-0.2-8.8c0-3.5,0-7.7-0.2-12.8c-0.2-0.6-0.8-1.3-1.9-1.9c-1-0.6-2.3-1.1-3.6-1.5c-1.5-0.4-2.9-0.6-4.2-0.6
	c-1.2,0-1.7,0-2.7,0.6c-2.1,1.2-1,5.4-1,6.1c0.2,5.2-1.7,9.2-2.7,12.3c-1,3.1-1.9,5.6-2.7,7.3c-0.6,1-1,1.9-1.5,2.7
	c-0.6,0.8-1,1.5-1.5,1.9c0-0.4-0.2-0.8-0.4-1.3c-0.2-0.4-0.4-1.2-0.6-1.9c-0.2-1.3-0.8-3.3-1.3-5.7c-0.8-2.5-1.3-5.7-2.3-9.8
	c-0.6-2.9-1.1-5.4-1.5-7.3c-0.4-1.9-1-3.4-1.9-4.4c-1-1.1-2.7-1.7-4.4-1.5c-3.8,0.4-6.5,5.9-4.4,9.2c-1.7,7.9-3.4,14.9-4.8,19.9
	s-2.3,8.6-3.1,11.3c-0.8,2.5-1.3,4.6-1.7,5.7c-0.4,1.1-0.6,2.3-0.8,3.1v3.3c0.2,2.3,1.1,3.8,2.9,5c1.7,1.1,3.8,1.7,6.1,2.1
	c2.3,0.4,4.2,0.4,5.9,0.4h2.7c-1.3-2.7-2.3-5.6-2.9-8.6c-0.6-3.1-1-6.1-1-9.4c-0.2-3.3,0-6.3,0.2-9.4c0.4-3.1,0.6-5.9,1-8.4
	c1.3,4.4,2.5,9.4,4,14.7c1.5,5.6,3.1,11.3,4.8,17.6c0.2,0.6,1,1,2.3,1.3c1.3,0.4,2.7,0.6,4,0.6c0.4,0,0.8-0.2,1.1-0.2
	s0.6-0.2,0.8-0.4c0.6-5,1.3-9.8,2.3-14.6c1-4.8,1.9-8.8,3.1-12.5c0.4,6.9,1.2,13.4,2.1,19.3c1,5.9,1.3,21.5,11.5,22.6
	c4.6,0.6,7.7-0.2,11.3-3.1c1.9-1.5,2.7-2.9,4-4.6s2.9-3.3,4.4-4.8c1.7-1.5,3.4-2.7,5.7-3.6c1.7-0.8,3.6-1.2,5.9-1.3
	c2.3-0.2,5,0,7.9,0.8c1-1.7,1.3-3.4,1.5-5c0-1.5-0.2-2.9-0.6-4C-60.4,437.5-61.6,436.4-63.1,436L-63.1,436z M-11,415.1
	c0.6-6.9,0.8-14.6,0.8-17.4c0-1.5-0.4-2.5-1.1-3.1c-0.6-0.6-1.7-0.8-2.9-0.8s-2.3,0.2-3.6,0.6c-1.1,0.4-2.3,0.8-3.4,1.3
	s-2.5,1.1-3.6,1.9c0.6,1.9,1,7.7,1.3,12.8c0.4,3.1,0.6,5.2,0.6,7.9c0,4-0.2,8-0.4,12.3c-0.2,4-0.6,7.9-1,11.5
	c-1.2-1.7-2.5-4.4-4-7.9c-1.7-3.4-3.3-7.7-4.8-12.6c-1.5-5-2.7-10.5-3.6-16.7c-0.2-1-0.6-1.7-1.5-2.1c-0.8-0.4-1.9-0.6-3.3-0.6
	c-1.5,0-3.1,0.2-4.6,0.8c-1.5,0.6-2.9,1.1-4.2,2.1c-2.3,1.2-0.2,7.5-0.2,7.5c2.1,7.3,3.8,14.2,1.9,22.8c-0.4,2.5-0.8,4.2-1.7,6.1
	c-1,2.1-2.3,5.9-4,7.9c1.3,1.9,4.6,4.8,8.2,4.6c1.9,0,3.1-0.4,4.8-1.5c4-2.7,3.1-10.3,2.9-12.1c-0.2-1.2-1.9-11.9-1.7-13.6
	c2.7,5,5.4,10.2,8,16.1c2.7,5.7,4.8,12.1,6.7,18.6c0,0.4,0.6,0.8,1.7,1.1c1.3,0.4,3.1,0.6,5.6,0.6c1.1,0,2.3,0,3.6-0.2
	s2.7-0.4,4.2-0.8c-1-1.7-1.7-4-2.3-6.5c-0.4-2.7-0.8-5.4-0.8-8.6c-0.2-5.2,0.2-10.7,0.8-16.3C-12.1,425.1-11.6,421.2-11,415.1
	L-11,415.1z M80,446.9c-3.1-4.4-7.7-13.6-9.8-20.9c1.1,0.2,2.5,0.4,3.6,0.8c2.5,0.8,5.2,1.9,7.9,3.6c2.1-1.9,3.6-3.8,4.6-5.7
	c1.1-1.9,1.5-3.8,1.5-5.6c0-2.1-1-4-2.9-5.4c-1.9-1.3-5-1.9-9-1.9c-2.1,0-4.2,0.4-6.1,1c-1,0.2-1.9,0.6-2.9,1
	c-0.8-2.7-1.5-5.6-2.1-8.6l-2.1-9.4l-1.5-6.5c-0.4-1.1-1.1-2.1-2.5-2.7s-2.7-1-4.2-1.1c-1.5-0.2-2.7-0.2-3.4-0.2c-1.3,0-3.1,1.3-5,4
	c-1.9,2.5-3.8,5.9-5.7,10.2c-2.1,4.2-3.8,8.8-5.6,13.6c-1.7,4.8-5.7,15.3-5.6,26c0.2,2.1,0.8,3.6,2.3,5c1.3,1.3,3.6,2.1,6.7,2.3
	c0.2-1.7,0.8-4,1.3-6.7c0.6-2.7,1.3-5.6,2.3-8.8c2.5-1.3,5-2.3,7.5-3.3c2.7-1,5.4-1.5,8.2-1.9c2.5,11.1,7.5,22.8,10.7,28.5
	c3.4,5.7,5.7,8.2,11.3,8.4c5.6,0.4,7.9-2.5,11.9-7.9C86.9,454,83.1,451.3,80,446.9L80,446.9z M50.5,419.5c-1.9,1-3.8,1.9-5.9,2.9
	l4-12.1c1.5-4,2.9-7.9,4.4-11.5h0.4c0.8,6.5,1.7,12.5,2.7,18C54.1,417.6,52.4,418.5,50.5,419.5L50.5,419.5z M107.2,451.7
	c1.9,0,3.4-1,4.8-2.3c1.3-1.5,2.3-3.3,2.9-5.4s1-4.4,1-6.5c0-2.3-0.6-4.4-1.3-5.9c-1-1.7-2.3-2.5-4.2-2.5c-1,0-1.9,0.2-2.9,0.8
	c-1,0.6-2.1,1.9-3.3,3.8c0-1.7-0.2-3.1-0.6-3.8c-0.4-0.8-1-1.1-1.9-1.1c-0.6,0-1.3,0.2-2.3,0.4s-1.9,0.6-3.3,1.1
	c0.6,0.8,1,1.5,1.1,2.7c0.2,1.1,0.4,2.3,0.4,3.6v7.5c0,0,0,4.6-0.2,6.3c-0.2,1.7-0.4,3.3-0.6,4.6c-0.2,1.3-0.2,2.9-0.2,4.6
	c0,0.8,0.2,1.3,0.8,1.7c0.4,0.4,1,0.4,1.7,0.4s1.7-0.2,2.7-0.6c1-0.4,1.7-0.8,2.3-1c0.6-0.4,1-0.6,1-0.6c-0.6-1.2-0.8-2.3-1-3.4
	c-0.2-1.3-0.4-2.7-0.4-4V450c0.4,0.4,1,0.8,1.5,1C105.7,451.7,106.4,451.7,107.2,451.7L107.2,451.7z M103.6,446.3
	c0-2.9,0.2-5.2,0.6-6.9s1-3.1,1.5-3.8c0.6-0.8,1.1-1.2,1.7-1.2c0.2,0,0.6,0.2,0.6,0.8c0.2,0.6,0.2,1.1,0.2,1.9
	c0,1.3-0.2,2.7-0.4,4.2c-0.4,1.5-1,2.9-1.5,4c-0.8,1.1-1.7,1.9-2.9,2.1L103.6,446.3L103.6,446.3z M128.3,442.9
	c1.9,0,3.5-0.6,4.6-1.3s2.1-1.7,2.9-2.9c0.6-1.1,1-2.5,1-3.6c0-1.9-0.8-3.6-2.1-5c-1.3-1.3-3.4-2.1-6.1-2.1c-1.9,0-3.6,0.8-5.4,2.1
	c-1.5,1.3-2.9,2.9-3.8,5c-1,1.9-1.5,4.2-1.5,6.3c0,2.7,0.6,5,1.7,6.5c1,1.5,2.3,2.7,3.8,3.4c1.5,0.6,3.1,1,4.8,1
	c2.1,0,4-0.6,5.7-1.5c1.5-1,2.5-1.9,2.5-3.1c0-0.8-0.4-1.3-1-1.9s-1.5-0.8-2.7-1c-0.4,1.1-1,1.9-1.7,2.7c-0.8,0.6-1.5,1-2.3,1
	c-1.3,0-2.3-0.6-3.1-1.7c-0.6-1.1-1-2.5-1-4c0.6,0.2,1.3,0.2,1.9,0.4C127.1,442.9,127.7,442.9,128.3,442.9L128.3,442.9z
	 M129.2,433.3c0.2,0,0.6,0.2,0.6,0.4c0.2,0.4,0.2,0.8,0.2,1.1c0,1-0.4,1.9-1.1,3.1c-0.8,1-2.3,1.7-4.2,2.1c0.2-1.7,0.8-3.3,1.5-4.6
	S128.1,433.3,129.2,433.3L129.2,433.3z M89,447.7c1.5,0,2.7-0.6,3.4-1.5c0.8-1,1.1-1.9,1.1-3.3c0-1.2-0.4-2.1-1.1-2.9
	c-0.8-0.8-1.9-1.1-3.3-1.1s-2.5,0.6-3.3,1.7c-0.8,1-1.1,2.1-1.1,3.4c0,1,0.4,1.9,1.1,2.7C86.3,447.3,87.5,447.7,89,447.7L89,447.7z"
	/>
</svg>
