<svg xmlns="http://www.w3.org/2000/svg" viewBox="0 0 268.78 43.03"><defs><style>.cls-1{fill:#211915;}</style></defs><title>Recurso 1</title><g id="Capa_2" data-name="Capa 2"><g id="Capa_12" data-name="Capa 12"><path class="cls-1" d="M19.1,1.13H30.83q2.51,13.23,4,22.76l1-6.34q.61-3.71,1.32-7.23l1.81-9.19h12L55.55,42H46.36L43.88,13.91,38.15,42H31.87l-6-28.18L23.48,42H14.69Z"/><path class="cls-1" d="M91.48,42H81.83l-1.56-6.83h-9.8L68.84,42H59.38L70.22,1.13H80.63Zm-13-14.18q-2.08-9.13-3.12-17.37h-.12Q74.14,19,72.15,27.84Z"/><path class="cls-1" d="M124.1,42h-9.28V25h-.15l-7.9,17H96.56l9.1-20L96.16,1.13h9.74l8.76,19.23h.15V1.13h9.28Z"/><path class="cls-1" d="M155.46,42h-9.28V23.4H146L138.52,42h-9.8l7.41-18.44a9.49,9.49,0,0,1-4.2-4.18,12.31,12.31,0,0,1-1.44-5.74,11.62,11.62,0,0,1,3.8-9.16q3.8-3.37,10.35-3.37h10.81Zm-14-31.67A5.12,5.12,0,0,0,140,14.43q0,4.2,6.16,4.32V9Q142.87,9.13,141.45,10.35Z"/><path class="cls-1" d="M174,43q-7.41,0-11.3-5.68t-3.89-16.4q0-9.89,3.91-15.42A12.58,12.58,0,0,1,173.62,0Q181.06,0,185,5.54t3.94,15.83q0,10.29-3.87,16A12.57,12.57,0,0,1,174,43Zm-.34-33.75q-5,0-5,11.79,0,7.6,1.27,10.14a4,4,0,0,0,3.69,2.54,4.36,4.36,0,0,0,4-2.54q1.39-2.54,1.39-10Q179,9.28,173.68,9.28Z"/><path class="cls-1" d="M194,1.13h26.4L206.18,33.29h13V42H192L206.12,9.89H194Z"/><path class="cls-1" d="M254.48,42h-9.65l-1.56-6.83h-9.8L231.85,42h-9.46L233.22,1.13h10.41Zm-13-14.18q-2.08-9.13-3.12-17.37h-.12q-1.1,8.48-3.09,17.37Z"/><path class="cls-1" d="M259.5,1.13h9.28V42H259.5Z"/><rect class="cls-1" y="31.41" width="10.6" height="10.6"/></g></g></svg>